<svg xmlns="http://www.w3.org/2000/svg" xmlns:xlink="http://www.w3.org/1999/xlink" width="528pt" height="332pt" viewBox="0.00 0.00 528.00 332.00">
<g id="graph0" class="graph" transform="scale(1 1) rotate(0) translate(4 328)">
<title>G</title>
<polygon fill="white" stroke="none" points="-4,4 -4,-328 524.22,-328 524.22,4 -4,4"/>
<!-- Start -->
<g id="node1" class="node">
<title>Start</title>
<ellipse fill="#e1f5fe" stroke="black" cx="384.22" cy="-306" rx="33.22" ry="18"/>
<text xml:space="preserve" text-anchor="middle" x="384.22" y="-302.4" font-family="Courier New" font-size="12.00">Start</text>
</g>
<!-- Init -->
<g id="node2" class="node">
<title>Init</title>
<polygon fill="#88e788" stroke="black" points="457.03,-252 311.41,-252 311.41,-216 457.03,-216 457.03,-252"/>
<text xml:space="preserve" text-anchor="middle" x="384.22" y="-230.4" font-family="Courier New" font-size="12.00">int32_t hello = 0;</text>
</g>
<!-- Start&#45;&gt;Init -->
<g id="edge1" class="edge">
<title>Start-&gt;Init</title>
<path fill="none" stroke="black" d="M384.22,-287.7C384.22,-280.41 384.22,-271.73 384.22,-263.54"/>
<polygon fill="black" stroke="black" points="387.72,-263.62 384.22,-253.62 380.72,-263.62 387.72,-263.62"/>
</g>
<!-- Head -->
<g id="node3" class="node">
<title>Head</title>
<polygon fill="#88e788" stroke="black" points="467.83,-180 300.61,-180 300.61,-144 467.83,-144 467.83,-180"/>
<text xml:space="preserve" text-anchor="middle" x="384.22" y="-158.4" font-family="Courier New" font-size="12.00">while (hello &lt; 100) {</text>
</g>
<!-- Init&#45;&gt;Head -->
<g id="edge2" class="edge">
<title>Init-&gt;Head</title>
<path fill="none" stroke="black" d="M384.22,-215.7C384.22,-208.41 384.22,-199.73 384.22,-191.54"/>
<polygon fill="black" stroke="black" points="387.72,-191.62 384.22,-181.62 380.72,-191.62 387.72,-191.62"/>
</g>
<!-- Body -->
<g id="node4" class="node">
<title>Body</title>
<polygon fill="#88e788" stroke="black" points="246.44,-108 0,-108 0,-72 246.44,-72 246.44,-108"/>
<text xml:space="preserve" text-anchor="middle" x="123.22" y="-86.4" font-family="Courier New" font-size="12.00">hello = hello + (hello * hello);</text>
</g>
<!-- Head&#45;&gt;Body -->
<g id="edge3" class="edge">
<title>Head-&gt;Body</title>
<path fill="none" stroke="black" d="M319.03,-143.52C282.61,-133.75 237.05,-121.53 199.05,-111.34"/>
<polygon fill="black" stroke="black" points="200.05,-107.98 189.49,-108.77 198.24,-114.74 200.05,-107.98"/>
</g>
<!-- Pstat -->
<g id="node6" class="node">
<title>Pstat</title>
<polygon fill="#88e788" stroke="black" points="503.84,-108 264.6,-108 264.6,-72 503.84,-72 503.84,-108"/>
<text xml:space="preserve" text-anchor="middle" x="384.22" y="-86.4" font-family="Courier New" font-size="12.00">printf(%d, %d\n, hello, hello);</text>
</g>
<!-- Head&#45;&gt;Pstat -->
<g id="edge6" class="edge">
<title>Head-&gt;Pstat</title>
<path fill="none" stroke="black" d="M384.22,-143.7C384.22,-136.41 384.22,-127.73 384.22,-119.54"/>
<polygon fill="black" stroke="black" points="387.72,-119.62 384.22,-109.62 380.72,-119.62 387.72,-119.62"/>
</g>
<!-- Condition -->
<g id="node5" class="node">
<title>Condition</title>
<polygon fill="#88e788" stroke="black" points="354.22,-36 300.22,-36 300.22,0 354.22,0 354.22,-36"/>
<text xml:space="preserve" text-anchor="middle" x="327.22" y="-14.4" font-family="Courier New" font-size="12.00">}</text>
</g>
<!-- Body&#45;&gt;Condition -->
<g id="edge4" class="edge">
<title>Body-&gt;Condition</title>
<path fill="none" stroke="black" d="M174.17,-71.52C209.75,-59.31 256.49,-43.27 288.91,-32.15"/>
<polygon fill="black" stroke="black" points="289.99,-35.48 298.31,-28.92 287.71,-28.86 289.99,-35.48"/>
</g>
<!-- Condition&#45;&gt;Head -->
<g id="edge5" class="edge">
<title>Condition-&gt;Head</title>
<path fill="none" stroke="black" d="M354.47,-22.73C401.34,-29.77 494.05,-46.61 513.22,-72 522.86,-84.77 522.13,-94.71 513.22,-108 504.29,-121.32 491.35,-131.29 477.07,-138.76"/>
<polygon fill="black" stroke="black" points="475.9,-135.44 468.37,-142.89 478.91,-141.77 475.9,-135.44"/>
</g>
</g>
</svg>