<svg xmlns="http://www.w3.org/2000/svg" xmlns:xlink="http://www.w3.org/1999/xlink" width="1206pt" height="476pt" viewBox="0.00 0.00 1206.00 476.00">
<g id="graph0" class="graph" transform="scale(1 1) rotate(0) translate(4 472)">
<title>G</title>
<polygon fill="white" stroke="none" points="-4,4 -4,-472 1202.22,-472 1202.22,4 -4,4"/>
<!-- Start -->
<g id="node1" class="node">
<title>Start</title>
<ellipse fill="#e1f5fe" stroke="black" cx="178.61" cy="-450" rx="33.22" ry="18"/>
<text xml:space="preserve" text-anchor="middle" x="178.61" y="-446.4" font-family="Courier New" font-size="12.00">Start</text>
</g>
<!-- Init -->
<g id="node2" class="node">
<title>Init</title>
<polygon fill="#ff474c" stroke="black" points="247.82,-396 109.4,-396 109.4,-360 247.82,-360 247.82,-396"/>
<text xml:space="preserve" text-anchor="middle" x="178.61" y="-374.4" font-family="Courier New" font-size="12.00">[Assignment] STAT</text>
</g>
<!-- Start&#45;&gt;Init -->
<g id="edge1" class="edge">
<title>Start-&gt;Init</title>
<path fill="none" stroke="black" d="M178.61,-431.7C178.61,-424.41 178.61,-415.73 178.61,-407.54"/>
<polygon fill="black" stroke="black" points="182.11,-407.62 178.61,-397.62 175.11,-407.62 182.11,-407.62"/>
</g>
<!-- Init_L1 -->
<g id="node3" class="node">
<title>Init_L1</title>
<polygon fill="#88e788" stroke="black" points="120.42,-324 10.8,-324 10.8,-288 120.42,-288 120.42,-324"/>
<text xml:space="preserve" text-anchor="middle" x="65.61" y="-302.4" font-family="Courier New" font-size="12.00">[Bitcast] 32i</text>
</g>
<!-- Init&#45;&gt;Init_L1 -->
<g id="edge2" class="edge">
<title>Init-&gt;Init_L1</title>
<path fill="none" stroke="black" d="M150.39,-359.52C136.12,-350.68 118.62,-339.84 103.23,-330.3"/>
<polygon fill="black" stroke="black" points="105.1,-327.35 94.76,-325.06 101.42,-333.3 105.1,-327.35"/>
</g>
<!-- Init_R -->
<g id="node5" class="node">
<title>Init_R</title>
<polygon fill="#88e788" stroke="black" points="219.01,-324 138.2,-324 138.2,-288 219.01,-288 219.01,-324"/>
<text xml:space="preserve" text-anchor="middle" x="178.61" y="-302.4" font-family="Courier New" font-size="12.00">[Value] 0</text>
</g>
<!-- Init&#45;&gt;Init_R -->
<g id="edge4" class="edge">
<title>Init-&gt;Init_R</title>
<path fill="none" stroke="black" d="M178.61,-359.7C178.61,-352.41 178.61,-343.73 178.61,-335.54"/>
<polygon fill="black" stroke="black" points="182.11,-335.62 178.61,-325.62 175.11,-335.62 182.11,-335.62"/>
</g>
<!-- Condition -->
<g id="node6" class="node">
<title>Condition</title>
<polygon fill="#ff474c" stroke="black" points="329.61,-324 237.1,-306 329.61,-288 422.12,-306 329.61,-324"/>
<text xml:space="preserve" text-anchor="middle" x="329.61" y="-302.4" font-family="Courier New" font-size="12.00">[While] STAT</text>
</g>
<!-- Init&#45;&gt;Condition -->
<g id="edge5" class="edge">
<title>Init-&gt;Condition</title>
<path fill="none" stroke="black" d="M216.32,-359.52C239.81,-348.63 269.86,-334.7 293.11,-323.92"/>
<polygon fill="black" stroke="black" points="294.29,-327.23 301.89,-319.85 291.35,-320.88 294.29,-327.23"/>
</g>
<!-- Init_L2 -->
<g id="node4" class="node">
<title>Init_L2</title>
<polygon fill="#88e788" stroke="black" points="131.22,-252 0,-252 0,-216 131.22,-216 131.22,-252"/>
<text xml:space="preserve" text-anchor="middle" x="65.61" y="-230.4" font-family="Courier New" font-size="12.00">[Variable] hello</text>
</g>
<!-- Init_L1&#45;&gt;Init_L2 -->
<g id="edge3" class="edge">
<title>Init_L1-&gt;Init_L2</title>
<path fill="none" stroke="black" d="M65.61,-287.7C65.61,-280.41 65.61,-271.73 65.61,-263.54"/>
<polygon fill="black" stroke="black" points="69.11,-263.62 65.61,-253.62 62.11,-263.62 69.11,-263.62"/>
</g>
<!-- Condition_E -->
<g id="node7" class="node">
<title>Condition_E</title>
<polygon fill="#88e788" stroke="black" points="310.22,-252 215,-252 215,-216 310.22,-216 310.22,-252"/>
<text xml:space="preserve" text-anchor="middle" x="262.61" y="-230.4" font-family="Courier New" font-size="12.00">[Compare] &lt;</text>
</g>
<!-- Condition&#45;&gt;Condition_E -->
<g id="edge6" class="edge">
<title>Condition-&gt;Condition_E</title>
<path fill="none" stroke="black" d="M315.73,-290.5C307.46,-281.86 296.74,-270.66 287.09,-260.58"/>
<polygon fill="black" stroke="black" points="289.81,-258.36 280.37,-253.55 284.75,-263.2 289.81,-258.36"/>
</g>
<!-- LoopBody -->
<g id="node10" class="node">
<title>LoopBody</title>
<polygon fill="#ff474c" stroke="black" points="535.82,-252 397.4,-252 397.4,-216 535.82,-216 535.82,-252"/>
<text xml:space="preserve" text-anchor="middle" x="466.61" y="-230.4" font-family="Courier New" font-size="12.00">[Assignment] STAT</text>
</g>
<!-- Condition&#45;&gt;LoopBody -->
<g id="edge9" class="edge">
<title>Condition-&gt;LoopBody</title>
<path fill="none" stroke="black" d="M354.42,-292.32C373.34,-282.65 399.9,-269.08 422.43,-257.57"/>
<polygon fill="black" stroke="black" points="423.79,-260.81 431.1,-253.14 420.61,-254.57 423.79,-260.81"/>
</g>
<!-- Condition_EL -->
<g id="node8" class="node">
<title>Condition_EL</title>
<polygon fill="#88e788" stroke="black" points="197.22,-180 66,-180 66,-144 197.22,-144 197.22,-180"/>
<text xml:space="preserve" text-anchor="middle" x="131.61" y="-158.4" font-family="Courier New" font-size="12.00">[Variable] hello</text>
</g>
<!-- Condition_E&#45;&gt;Condition_EL -->
<g id="edge7" class="edge">
<title>Condition_E-&gt;Condition_EL</title>
<path fill="none" stroke="black" d="M229.89,-215.52C212.96,-206.47 192.09,-195.32 173.95,-185.62"/>
<polygon fill="black" stroke="black" points="175.72,-182.6 165.25,-180.97 172.42,-188.77 175.72,-182.6"/>
</g>
<!-- Condition_ER -->
<g id="node9" class="node">
<title>Condition_ER</title>
<polygon fill="#88e788" stroke="black" points="310.22,-180 215,-180 215,-144 310.22,-144 310.22,-180"/>
<text xml:space="preserve" text-anchor="middle" x="262.61" y="-158.4" font-family="Courier New" font-size="12.00">[Value] 100</text>
</g>
<!-- Condition_E&#45;&gt;Condition_ER -->
<g id="edge8" class="edge">
<title>Condition_E-&gt;Condition_ER</title>
<path fill="none" stroke="black" d="M262.61,-215.7C262.61,-208.41 262.61,-199.73 262.61,-191.54"/>
<polygon fill="black" stroke="black" points="266.11,-191.62 262.61,-181.62 259.11,-191.62 266.11,-191.62"/>
</g>
<!-- LoopBody_L -->
<g id="node11" class="node">
<title>LoopBody_L</title>
<polygon fill="#88e788" stroke="black" points="459.22,-180 328,-180 328,-144 459.22,-144 459.22,-180"/>
<text xml:space="preserve" text-anchor="middle" x="393.61" y="-158.4" font-family="Courier New" font-size="12.00">[Variable] hello</text>
</g>
<!-- LoopBody&#45;&gt;LoopBody_L -->
<g id="edge11" class="edge">
<title>LoopBody-&gt;LoopBody_L</title>
<path fill="none" stroke="black" d="M448.56,-215.7C439.88,-207.37 429.3,-197.22 419.75,-188.07"/>
<polygon fill="black" stroke="black" points="422.43,-185.79 412.79,-181.39 417.59,-190.84 422.43,-185.79"/>
</g>
<!-- LoopBody_R -->
<g id="node12" class="node">
<title>LoopBody_R</title>
<polygon fill="#88e788" stroke="black" points="594.02,-180 477.2,-180 477.2,-144 594.02,-144 594.02,-180"/>
<text xml:space="preserve" text-anchor="middle" x="535.61" y="-158.4" font-family="Courier New" font-size="12.00">[Arithmetic] +</text>
</g>
<!-- LoopBody&#45;&gt;LoopBody_R -->
<g id="edge12" class="edge">
<title>LoopBody-&gt;LoopBody_R</title>
<path fill="none" stroke="black" d="M483.67,-215.7C491.85,-207.39 501.82,-197.28 510.83,-188.14"/>
<polygon fill="black" stroke="black" points="513.16,-190.76 517.69,-181.18 508.17,-185.85 513.16,-190.76"/>
</g>
<!-- End -->
<g id="node17" class="node">
<title>End</title>
<polygon fill="#ff474c" stroke="black" points="820.22,-180 689,-180 689,-144 820.22,-144 820.22,-180"/>
<text xml:space="preserve" text-anchor="middle" x="754.61" y="-158.4" font-family="Courier New" font-size="12.00">[While-End] STAT</text>
</g>
<!-- LoopBody&#45;&gt;End -->
<g id="edge10" class="edge">
<title>LoopBody-&gt;End</title>
<path fill="none" stroke="black" d="M535.96,-216.14C578.77,-205.74 633.75,-192.38 677.86,-181.65"/>
<polygon fill="black" stroke="black" points="678.47,-185.11 687.36,-179.35 676.81,-178.31 678.47,-185.11"/>
</g>
<!-- LoopBody_RL -->
<g id="node13" class="node">
<title>LoopBody_RL</title>
<polygon fill="#88e788" stroke="black" points="459.22,-108 328,-108 328,-72 459.22,-72 459.22,-108"/>
<text xml:space="preserve" text-anchor="middle" x="393.61" y="-86.4" font-family="Courier New" font-size="12.00">[Variable] hello</text>
</g>
<!-- LoopBody_R&#45;&gt;LoopBody_RL -->
<g id="edge13" class="edge">
<title>LoopBody_R-&gt;LoopBody_RL</title>
<path fill="none" stroke="black" d="M500.14,-143.52C481.54,-134.34 458.54,-123.01 438.68,-113.22"/>
<polygon fill="black" stroke="black" points="440.5,-110.21 429.98,-108.93 437.4,-116.49 440.5,-110.21"/>
</g>
<!-- LoopBody_RR -->
<g id="node14" class="node">
<title>LoopBody_RR</title>
<polygon fill="#88e788" stroke="black" points="594.02,-108 477.2,-108 477.2,-72 594.02,-72 594.02,-108"/>
<text xml:space="preserve" text-anchor="middle" x="535.61" y="-86.4" font-family="Courier New" font-size="12.00">[Arithmetic] *</text>
</g>
<!-- LoopBody_R&#45;&gt;LoopBody_RR -->
<g id="edge14" class="edge">
<title>LoopBody_R-&gt;LoopBody_RR</title>
<path fill="none" stroke="black" d="M535.61,-143.7C535.61,-136.41 535.61,-127.73 535.61,-119.54"/>
<polygon fill="black" stroke="black" points="539.11,-119.62 535.61,-109.62 532.11,-119.62 539.11,-119.62"/>
</g>
<!-- LoopBody_RRL -->
<g id="node15" class="node">
<title>LoopBody_RRL</title>
<polygon fill="#88e788" stroke="black" points="452.22,-36 321,-36 321,0 452.22,0 452.22,-36"/>
<text xml:space="preserve" text-anchor="middle" x="386.61" y="-14.4" font-family="Courier New" font-size="12.00">[Variable] hello</text>
</g>
<!-- LoopBody_RR&#45;&gt;LoopBody_RRL -->
<g id="edge15" class="edge">
<title>LoopBody_RR-&gt;LoopBody_RRL</title>
<path fill="none" stroke="black" d="M498.39,-71.52C478.85,-62.34 454.7,-50.99 433.85,-41.2"/>
<polygon fill="black" stroke="black" points="435.52,-38.11 424.98,-37.03 432.54,-44.45 435.52,-38.11"/>
</g>
<!-- LoopBody_RRR -->
<g id="node16" class="node">
<title>LoopBody_RRR</title>
<polygon fill="#88e788" stroke="black" points="601.22,-36 470,-36 470,0 601.22,0 601.22,-36"/>
<text xml:space="preserve" text-anchor="middle" x="535.61" y="-14.4" font-family="Courier New" font-size="12.00">[Variable] hello</text>
</g>
<!-- LoopBody_RR&#45;&gt;LoopBody_RRR -->
<g id="edge16" class="edge">
<title>LoopBody_RR-&gt;LoopBody_RRR</title>
<path fill="none" stroke="black" d="M535.61,-71.7C535.61,-64.41 535.61,-55.73 535.61,-47.54"/>
<polygon fill="black" stroke="black" points="539.11,-47.62 535.61,-37.62 532.11,-47.62 539.11,-47.62"/>
</g>
<!-- Print -->
<g id="node18" class="node">
<title>Print</title>
<polygon fill="#ff474c" stroke="black" points="878.22,-108 783,-108 783,-72 878.22,-72 878.22,-108"/>
<text xml:space="preserve" text-anchor="middle" x="830.61" y="-86.4" font-family="Courier New" font-size="12.00">[Call] Stat</text>
</g>
<!-- End&#45;&gt;Print -->
<g id="edge17" class="edge">
<title>End-&gt;Print</title>
<path fill="none" stroke="black" d="M773.4,-143.7C782.44,-135.37 793.45,-125.22 803.39,-116.07"/>
<polygon fill="black" stroke="black" points="805.68,-118.72 810.66,-109.37 800.94,-113.57 805.68,-118.72"/>
</g>
<!-- Print_V1 -->
<g id="node19" class="node">
<title>Print_V1</title>
<polygon fill="#88e788" stroke="black" points="743.62,-36 619.6,-36 619.6,0 743.62,0 743.62,-36"/>
<text xml:space="preserve" text-anchor="middle" x="681.61" y="-14.4" font-family="Courier New" font-size="12.00">[Global] printf</text>
</g>
<!-- Print&#45;&gt;Print_V1 -->
<g id="edge18" class="edge">
<title>Print-&gt;Print_V1</title>
<path fill="none" stroke="black" d="M793.39,-71.52C773.85,-62.34 749.7,-50.99 728.85,-41.2"/>
<polygon fill="black" stroke="black" points="730.52,-38.11 719.98,-37.03 727.54,-44.45 730.52,-38.11"/>
</g>
<!-- Print_V2 -->
<g id="node20" class="node">
<title>Print_V2</title>
<polygon fill="#88e788" stroke="black" points="899.82,-36 761.4,-36 761.4,0 899.82,0 899.82,-36"/>
<text xml:space="preserve" text-anchor="middle" x="830.61" y="-14.4" font-family="Courier New" font-size="12.00">[String] %d, %d\n</text>
</g>
<!-- Print&#45;&gt;Print_V2 -->
<g id="edge19" class="edge">
<title>Print-&gt;Print_V2</title>
<path fill="none" stroke="black" d="M830.61,-71.7C830.61,-64.41 830.61,-55.73 830.61,-47.54"/>
<polygon fill="black" stroke="black" points="834.11,-47.62 830.61,-37.62 827.11,-47.62 834.11,-47.62"/>
</g>
<!-- Print_V3 -->
<g id="node21" class="node">
<title>Print_V3</title>
<polygon fill="#88e788" stroke="black" points="1049.22,-36 918,-36 918,0 1049.22,0 1049.22,-36"/>
<text xml:space="preserve" text-anchor="middle" x="983.61" y="-14.4" font-family="Courier New" font-size="12.00">[Variable] hello</text>
</g>
<!-- Print&#45;&gt;Print_V3 -->
<g id="edge20" class="edge">
<title>Print-&gt;Print_V3</title>
<path fill="none" stroke="black" d="M868.82,-71.52C888.98,-62.29 913.92,-50.89 935.39,-41.06"/>
<polygon fill="black" stroke="black" points="936.6,-44.35 944.24,-37.01 933.69,-37.99 936.6,-44.35"/>
</g>
<!-- Print_V4 -->
<g id="node22" class="node">
<title>Print_V4</title>
<polygon fill="#88e788" stroke="black" points="1198.22,-36 1067,-36 1067,0 1198.22,0 1198.22,-36"/>
<text xml:space="preserve" text-anchor="middle" x="1132.61" y="-14.4" font-family="Courier New" font-size="12.00">[Variable] hello</text>
</g>
<!-- Print&#45;&gt;Print_V4 -->
<g id="edge21" class="edge">
<title>Print-&gt;Print_V4</title>
<path fill="none" stroke="black" d="M878.46,-77.91C926.1,-66.87 999.97,-49.75 1055.81,-36.8"/>
<polygon fill="black" stroke="black" points="1056.3,-40.28 1065.25,-34.61 1054.72,-33.46 1056.3,-40.28"/>
</g>
</g>
</svg>