<svg xmlns="http://www.w3.org/2000/svg" xmlns:xlink="http://www.w3.org/1999/xlink" width="753pt" height="1412pt" viewBox="0.00 0.00 753.00 1412.00">
<g id="graph0" class="graph" transform="scale(1 1) rotate(0) translate(4 1408)">
<title>G</title>
<polygon fill="white" stroke="none" points="-4,4 -4,-1408 749.08,-1408 749.08,4 -4,4"/>
<!-- 0 -->
<g id="node1" class="node">
<title>0</title>
<ellipse fill="none" stroke="black" cx="476.54" cy="-1386" rx="59.85" ry="18"/>
<text xml:space="preserve" text-anchor="middle" x="476.54" y="-1381.8" font-family="Times,serif" font-size="14.00">::label_189::</text>
</g>
<!-- 1 -->
<g id="node2" class="node">
<title>1</title>
<ellipse fill="none" stroke="black" cx="476.54" cy="-1314" rx="153.71" ry="18"/>
<text xml:space="preserve" text-anchor="middle" x="476.54" y="-1309.8" font-family="Times,serif" font-size="14.00">if (not r250) then goto label_331 end</text>
</g>
<!-- 0&#45;&gt;1 -->
<g id="edge1" class="edge">
<title>0-&gt;1</title>
<path fill="none" stroke="purple" d="M476.54,-1367.7C476.54,-1360.41 476.54,-1351.73 476.54,-1343.54"/>
<polygon fill="purple" stroke="purple" points="480.04,-1343.62 476.54,-1333.62 473.04,-1343.62 480.04,-1343.62"/>
</g>
<!-- 2 -->
<g id="node3" class="node">
<title>2</title>
<ellipse fill="none" stroke="black" cx="367.54" cy="-1242" rx="45.1" ry="18"/>
<text xml:space="preserve" text-anchor="middle" x="367.54" y="-1237.8" font-family="Times,serif" font-size="14.00">goto 803</text>
</g>
<!-- 1&#45;&gt;2 -->
<g id="edge2" class="edge">
<title>1-&gt;2</title>
<path fill="none" stroke="green" d="M449.88,-1295.88C434.84,-1286.22 415.95,-1274.09 400.06,-1263.88"/>
<polygon fill="green" stroke="green" points="402.19,-1261.09 391.88,-1258.63 398.4,-1266.98 402.19,-1261.09"/>
</g>
<!-- 4 -->
<g id="node5" class="node">
<title>4</title>
<ellipse fill="none" stroke="black" cx="586.54" cy="-1242" rx="155.47" ry="18"/>
<text xml:space="preserve" text-anchor="middle" x="586.54" y="-1237.8" font-family="Times,serif" font-size="14.00">page_function_call&lt;101&gt;()[r250, 82]</text>
</g>
<!-- 1&#45;&gt;4 -->
<g id="edge3" class="edge">
<title>1-&gt;4</title>
<path fill="none" stroke="red" d="M503.45,-1295.88C517.43,-1286.98 534.73,-1275.97 549.91,-1266.31"/>
<polygon fill="red" stroke="red" points="551.69,-1269.32 558.25,-1261 547.94,-1263.42 551.69,-1269.32"/>
</g>
<!-- 3 -->
<g id="node4" class="node">
<title>3</title>
<ellipse fill="none" stroke="black" cx="367.54" cy="-1170" rx="41.61" ry="18"/>
<text xml:space="preserve" text-anchor="middle" x="367.54" y="-1165.8" font-family="Times,serif" font-size="14.00">return ; </text>
</g>
<!-- 2&#45;&gt;3 -->
<g id="edge4" class="edge">
<title>2-&gt;3</title>
<path fill="none" stroke="red" d="M367.54,-1223.7C367.54,-1216.41 367.54,-1207.73 367.54,-1199.54"/>
<polygon fill="red" stroke="red" points="371.04,-1199.62 367.54,-1189.62 364.04,-1199.62 371.04,-1199.62"/>
</g>
<!-- 5 -->
<g id="node6" class="node">
<title>5</title>
<ellipse fill="none" stroke="black" cx="586.54" cy="-1170" rx="118.11" ry="18"/>
<text xml:space="preserve" text-anchor="middle" x="586.54" y="-1165.8" font-family="Times,serif" font-size="14.00">page_function_start (101) {</text>
</g>
<!-- 4&#45;&gt;5 -->
<g id="edge5" class="edge">
<title>4-&gt;5</title>
<path fill="none" stroke="red" d="M586.54,-1223.7C586.54,-1216.41 586.54,-1207.73 586.54,-1199.54"/>
<polygon fill="red" stroke="red" points="590.04,-1199.62 586.54,-1189.62 583.04,-1199.62 590.04,-1199.62"/>
</g>
<!-- 6 -->
<g id="node7" class="node">
<title>6</title>
<ellipse fill="none" stroke="black" cx="586.54" cy="-1098" rx="64.68" ry="18"/>
<text xml:space="preserve" text-anchor="middle" x="586.54" y="-1093.8" font-family="Times,serif" font-size="14.00">::label_1359::</text>
</g>
<!-- 5&#45;&gt;6 -->
<g id="edge6" class="edge">
<title>5-&gt;6</title>
<path fill="none" stroke="purple" d="M586.54,-1151.7C586.54,-1144.41 586.54,-1135.73 586.54,-1127.54"/>
<polygon fill="purple" stroke="purple" points="590.04,-1127.62 586.54,-1117.62 583.04,-1127.62 590.04,-1127.62"/>
</g>
<!-- 7 -->
<g id="node8" class="node">
<title>7</title>
<ellipse fill="none" stroke="black" cx="586.54" cy="-1026" rx="158.54" ry="18"/>
<text xml:space="preserve" text-anchor="middle" x="586.54" y="-1021.8" font-family="Times,serif" font-size="14.00">if (not r250) then goto label_1501 end</text>
</g>
<!-- 6&#45;&gt;7 -->
<g id="edge7" class="edge">
<title>6-&gt;7</title>
<path fill="none" stroke="purple" d="M586.54,-1079.7C586.54,-1072.41 586.54,-1063.73 586.54,-1055.54"/>
<polygon fill="purple" stroke="purple" points="590.04,-1055.62 586.54,-1045.62 583.04,-1055.62 590.04,-1055.62"/>
</g>
<!-- 8 -->
<g id="node9" class="node">
<title>8</title>
<ellipse fill="none" stroke="black" cx="228.54" cy="-810" rx="49.93" ry="18"/>
<text xml:space="preserve" text-anchor="middle" x="228.54" y="-805.8" font-family="Times,serif" font-size="14.00">goto 3203</text>
</g>
<!-- 7&#45;&gt;8 -->
<g id="edge8" class="edge">
<title>7-&gt;8</title>
<path fill="none" stroke="green" d="M480.39,-1012.23C419.61,-1003.24 350.57,-989.66 325.54,-972 278.66,-938.92 250.42,-875.34 237.33,-838.76"/>
<polygon fill="green" stroke="green" points="240.8,-838.09 234.24,-829.77 234.18,-840.36 240.8,-838.09"/>
</g>
<!-- 13 -->
<g id="node14" class="node">
<title>13</title>
<ellipse fill="none" stroke="black" cx="493.54" cy="-954" rx="158.54" ry="18"/>
<text xml:space="preserve" text-anchor="middle" x="493.54" y="-949.8" font-family="Times,serif" font-size="14.00">if (not r260) then goto label_1564 end</text>
</g>
<!-- 7&#45;&gt;13 -->
<g id="edge9" class="edge">
<title>7-&gt;13</title>
<path fill="none" stroke="red" d="M563.55,-1007.7C552.06,-999.05 537.98,-988.45 525.46,-979.03"/>
<polygon fill="red" stroke="red" points="527.57,-976.23 517.47,-973.01 523.36,-981.82 527.57,-976.23"/>
</g>
<!-- 9 -->
<g id="node10" class="node">
<title>9</title>
<ellipse fill="none" stroke="black" cx="158.54" cy="-450" rx="158.54" ry="18"/>
<text xml:space="preserve" text-anchor="middle" x="158.54" y="-445.8" font-family="Times,serif" font-size="14.00">if (not r250) then goto label_3531 end</text>
</g>
<!-- 8&#45;&gt;9 -->
<g id="edge10" class="edge">
<title>8-&gt;9</title>
<path fill="none" stroke="red" d="M217.61,-792.3C201.83,-766.52 174.54,-715 174.54,-667 174.54,-667 174.54,-667 174.54,-593 174.54,-553.49 168.35,-508.19 163.67,-479.59"/>
<polygon fill="red" stroke="red" points="167.15,-479.19 162.03,-469.91 160.25,-480.35 167.15,-479.19"/>
</g>
<!-- 10 -->
<g id="node11" class="node">
<title>10</title>
<ellipse fill="none" stroke="black" cx="92.54" cy="-378" rx="49.93" ry="18"/>
<text xml:space="preserve" text-anchor="middle" x="92.54" y="-373.8" font-family="Times,serif" font-size="14.00">goto 3609</text>
</g>
<!-- 9&#45;&gt;10 -->
<g id="edge11" class="edge">
<title>9-&gt;10</title>
<path fill="none" stroke="green" d="M142.23,-431.7C134.16,-423.14 124.29,-412.67 115.48,-403.33"/>
<polygon fill="green" stroke="green" points="118.21,-401.12 108.8,-396.25 113.11,-405.92 118.21,-401.12"/>
</g>
<!-- 12 -->
<g id="node13" class="node">
<title>12</title>
<ellipse fill="none" stroke="black" cx="225.54" cy="-378" rx="64.68" ry="18"/>
<text xml:space="preserve" text-anchor="middle" x="225.54" y="-373.8" font-family="Times,serif" font-size="14.00">::label_3609::</text>
</g>
<!-- 9&#45;&gt;12 -->
<g id="edge12" class="edge">
<title>9-&gt;12</title>
<path fill="none" stroke="red" d="M175.1,-431.7C183.17,-423.27 193.02,-412.97 201.87,-403.73"/>
<polygon fill="red" stroke="red" points="204.2,-406.36 208.58,-396.72 199.14,-401.52 204.2,-406.36"/>
</g>
<!-- 11 -->
<g id="node12" class="node">
<title>11</title>
<ellipse fill="none" stroke="black" cx="159.54" cy="-306" rx="41.61" ry="18"/>
<text xml:space="preserve" text-anchor="middle" x="159.54" y="-301.8" font-family="Times,serif" font-size="14.00">return ; </text>
</g>
<!-- 10&#45;&gt;11 -->
<g id="edge13" class="edge">
<title>10-&gt;11</title>
<path fill="none" stroke="red" d="M108.08,-360.76C116.45,-352.02 126.95,-341.05 136.27,-331.31"/>
<polygon fill="red" stroke="red" points="138.65,-333.89 143.04,-324.24 133.6,-329.04 138.65,-333.89"/>
</g>
<!-- 12&#45;&gt;11 -->
<g id="edge14" class="edge">
<title>12-&gt;11</title>
<path fill="none" stroke="purple" d="M209.9,-360.41C201.64,-351.66 191.36,-340.75 182.25,-331.08"/>
<polygon fill="purple" stroke="purple" points="185.06,-328.96 175.65,-324.09 179.97,-333.77 185.06,-328.96"/>
</g>
<!-- 14 -->
<g id="node15" class="node">
<title>14</title>
<ellipse fill="none" stroke="black" cx="410.54" cy="-882" rx="49.93" ry="18"/>
<text xml:space="preserve" text-anchor="middle" x="410.54" y="-877.8" font-family="Times,serif" font-size="14.00">goto 1569</text>
</g>
<!-- 13&#45;&gt;14 -->
<g id="edge15" class="edge">
<title>13-&gt;14</title>
<path fill="none" stroke="green" d="M473.02,-935.7C462.49,-926.82 449.52,-915.87 438.12,-906.26"/>
<polygon fill="green" stroke="green" points="440.46,-903.65 430.56,-899.88 435.95,-909.01 440.46,-903.65"/>
</g>
<!-- 31 -->
<g id="node32" class="node">
<title>31</title>
<ellipse fill="none" stroke="black" cx="543.54" cy="-882" rx="64.68" ry="18"/>
<text xml:space="preserve" text-anchor="middle" x="543.54" y="-877.8" font-family="Times,serif" font-size="14.00">::label_1569::</text>
</g>
<!-- 13&#45;&gt;31 -->
<g id="edge16" class="edge">
<title>13-&gt;31</title>
<path fill="none" stroke="red" d="M505.9,-935.7C511.59,-927.73 518.47,-918.1 524.78,-909.26"/>
<polygon fill="red" stroke="red" points="527.48,-911.51 530.44,-901.34 521.78,-907.44 527.48,-911.51"/>
</g>
<!-- 15 -->
<g id="node16" class="node">
<title>15</title>
<ellipse fill="none" stroke="black" cx="481.54" cy="-810" rx="158.54" ry="18"/>
<text xml:space="preserve" text-anchor="middle" x="481.54" y="-805.8" font-family="Times,serif" font-size="14.00">if (not r250) then goto label_1810 end</text>
</g>
<!-- 14&#45;&gt;15 -->
<g id="edge17" class="edge">
<title>14-&gt;15</title>
<path fill="none" stroke="red" d="M427.01,-864.76C435.56,-856.33 446.21,-845.83 455.82,-836.36"/>
<polygon fill="red" stroke="red" points="458.18,-838.95 462.84,-829.43 453.27,-833.96 458.18,-838.95"/>
</g>
<!-- 16 -->
<g id="node17" class="node">
<title>16</title>
<ellipse fill="none" stroke="black" cx="465.54" cy="-738" rx="49.93" ry="18"/>
<text xml:space="preserve" text-anchor="middle" x="465.54" y="-733.8" font-family="Times,serif" font-size="14.00">goto 2188</text>
</g>
<!-- 15&#45;&gt;16 -->
<g id="edge18" class="edge">
<title>15-&gt;16</title>
<path fill="none" stroke="green" d="M477.59,-791.7C475.9,-784.32 473.89,-775.52 472,-767.25"/>
<polygon fill="green" stroke="green" points="475.43,-766.55 469.79,-757.58 468.6,-768.11 475.43,-766.55"/>
</g>
<!-- 30 -->
<g id="node31" class="node">
<title>30</title>
<ellipse fill="none" stroke="black" cx="581.54" cy="-666" rx="49.93" ry="18"/>
<text xml:space="preserve" text-anchor="middle" x="581.54" y="-661.8" font-family="Times,serif" font-size="14.00">goto 2477</text>
</g>
<!-- 15&#45;&gt;30 -->
<g id="edge19" class="edge">
<title>15-&gt;30</title>
<path fill="none" stroke="red" d="M496.38,-791.72C504.91,-781.54 515.66,-768.29 524.54,-756 539.18,-735.73 554.38,-711.83 565.4,-693.9"/>
<polygon fill="red" stroke="red" points="568.37,-695.76 570.59,-685.4 562.39,-692.11 568.37,-695.76"/>
</g>
<!-- 17 -->
<g id="node18" class="node">
<title>17</title>
<ellipse fill="none" stroke="black" cx="448.54" cy="-666" rx="64.68" ry="18"/>
<text xml:space="preserve" text-anchor="middle" x="448.54" y="-661.8" font-family="Times,serif" font-size="14.00">::label_2477::</text>
</g>
<!-- 16&#45;&gt;17 -->
<g id="edge20" class="edge">
<title>16-&gt;17</title>
<path fill="none" stroke="red" d="M461.34,-719.7C459.55,-712.32 457.41,-703.52 455.4,-695.25"/>
<polygon fill="red" stroke="red" points="458.81,-694.47 453.05,-685.58 452.01,-696.12 458.81,-694.47"/>
</g>
<!-- 18 -->
<g id="node19" class="node">
<title>18</title>
<ellipse fill="none" stroke="black" cx="465.54" cy="-594" rx="158.54" ry="18"/>
<text xml:space="preserve" text-anchor="middle" x="465.54" y="-589.8" font-family="Times,serif" font-size="14.00">if (not r255) then goto label_2628 end</text>
</g>
<!-- 17&#45;&gt;18 -->
<g id="edge21" class="edge">
<title>17-&gt;18</title>
<path fill="none" stroke="purple" d="M452.74,-647.7C454.53,-640.32 456.67,-631.52 458.68,-623.25"/>
<polygon fill="purple" stroke="purple" points="462.07,-624.12 461.03,-613.58 455.27,-622.47 462.07,-624.12"/>
</g>
<!-- 19 -->
<g id="node20" class="node">
<title>19</title>
<ellipse fill="none" stroke="black" cx="481.54" cy="-522" rx="49.93" ry="18"/>
<text xml:space="preserve" text-anchor="middle" x="481.54" y="-517.8" font-family="Times,serif" font-size="14.00">goto 2635</text>
</g>
<!-- 18&#45;&gt;19 -->
<g id="edge22" class="edge">
<title>18-&gt;19</title>
<path fill="none" stroke="green" d="M469.5,-575.7C471.18,-568.32 473.19,-559.52 475.08,-551.25"/>
<polygon fill="green" stroke="green" points="478.48,-552.11 477.29,-541.58 471.65,-550.55 478.48,-552.11"/>
</g>
<!-- 29 -->
<g id="node30" class="node">
<title>29</title>
<ellipse fill="none" stroke="black" cx="308.54" cy="-522" rx="49.93" ry="18"/>
<text xml:space="preserve" text-anchor="middle" x="308.54" y="-517.8" font-family="Times,serif" font-size="14.00">goto 3203</text>
</g>
<!-- 18&#45;&gt;29 -->
<g id="edge23" class="edge">
<title>18-&gt;29</title>
<path fill="none" stroke="red" d="M427.54,-576.05C403.9,-565.52 373.52,-551.97 349.37,-541.2"/>
<polygon fill="red" stroke="red" points="351.04,-538.12 340.48,-537.24 348.19,-544.51 351.04,-538.12"/>
</g>
<!-- 20 -->
<g id="node21" class="node">
<title>20</title>
<ellipse fill="none" stroke="black" cx="493.54" cy="-450" rx="158.54" ry="18"/>
<text xml:space="preserve" text-anchor="middle" x="493.54" y="-445.8" font-family="Times,serif" font-size="14.00">if (not r250) then goto label_2960 end</text>
</g>
<!-- 19&#45;&gt;20 -->
<g id="edge24" class="edge">
<title>19-&gt;20</title>
<path fill="none" stroke="red" d="M484.51,-503.7C485.77,-496.32 487.28,-487.52 488.7,-479.25"/>
<polygon fill="red" stroke="red" points="492.11,-480.04 490.35,-469.6 485.21,-478.86 492.11,-480.04"/>
</g>
<!-- 21 -->
<g id="node22" class="node">
<title>21</title>
<ellipse fill="none" stroke="black" cx="500.54" cy="-378" rx="49.93" ry="18"/>
<text xml:space="preserve" text-anchor="middle" x="500.54" y="-373.8" font-family="Times,serif" font-size="14.00">goto 2967</text>
</g>
<!-- 20&#45;&gt;21 -->
<g id="edge25" class="edge">
<title>20-&gt;21</title>
<path fill="none" stroke="green" d="M495.27,-431.7C496,-424.41 496.87,-415.73 497.69,-407.54"/>
<polygon fill="green" stroke="green" points="501.17,-407.91 498.68,-397.61 494.2,-407.21 501.17,-407.91"/>
</g>
<!-- 28 -->
<g id="node29" class="node">
<title>28</title>
<ellipse fill="none" stroke="black" cx="626.54" cy="-378" rx="49.93" ry="18"/>
<text xml:space="preserve" text-anchor="middle" x="626.54" y="-373.8" font-family="Times,serif" font-size="14.00">goto 1359</text>
</g>
<!-- 20&#45;&gt;28 -->
<g id="edge26" class="edge">
<title>20-&gt;28</title>
<path fill="none" stroke="red" d="M525.74,-432.05C544.85,-421.99 569.18,-409.19 589.14,-398.68"/>
<polygon fill="red" stroke="red" points="590.58,-401.88 597.79,-394.13 587.32,-395.69 590.58,-401.88"/>
</g>
<!-- 22 -->
<g id="node23" class="node">
<title>22</title>
<ellipse fill="none" stroke="black" cx="506.54" cy="-306" rx="64.68" ry="18"/>
<text xml:space="preserve" text-anchor="middle" x="506.54" y="-301.8" font-family="Times,serif" font-size="14.00">::label_3057::</text>
</g>
<!-- 21&#45;&gt;22 -->
<g id="edge27" class="edge">
<title>21-&gt;22</title>
<path fill="none" stroke="red" d="M502.02,-359.7C502.65,-352.41 503.39,-343.73 504.09,-335.54"/>
<polygon fill="red" stroke="red" points="507.58,-335.87 504.95,-325.61 500.6,-335.28 507.58,-335.87"/>
</g>
<!-- 23 -->
<g id="node24" class="node">
<title>23</title>
<ellipse fill="none" stroke="black" cx="525.54" cy="-234" rx="158.54" ry="18"/>
<text xml:space="preserve" text-anchor="middle" x="525.54" y="-229.8" font-family="Times,serif" font-size="14.00">if (not r255) then goto label_3088 end</text>
</g>
<!-- 22&#45;&gt;23 -->
<g id="edge28" class="edge">
<title>22-&gt;23</title>
<path fill="none" stroke="purple" d="M511.24,-287.7C513.26,-280.24 515.68,-271.32 517.95,-262.97"/>
<polygon fill="purple" stroke="purple" points="521.26,-264.13 520.5,-253.57 514.5,-262.3 521.26,-264.13"/>
</g>
<!-- 24 -->
<g id="node25" class="node">
<title>24</title>
<ellipse fill="none" stroke="black" cx="576.54" cy="-162" rx="49.93" ry="18"/>
<text xml:space="preserve" text-anchor="middle" x="576.54" y="-157.8" font-family="Times,serif" font-size="14.00">goto 3057</text>
</g>
<!-- 23&#45;&gt;24 -->
<g id="edge29" class="edge">
<title>23-&gt;24</title>
<path fill="none" stroke="green" d="M532.23,-215.7C537.47,-207.32 544.72,-197.1 551.91,-187.9"/>
<polygon fill="green" stroke="green" points="554.47,-190.3 558.04,-180.32 549.03,-185.9 554.47,-190.3"/>
</g>
<!-- 25 -->
<g id="node26" class="node">
<title>25</title>
<ellipse fill="none" stroke="black" cx="350.54" cy="-162" rx="158.54" ry="18"/>
<text xml:space="preserve" text-anchor="middle" x="350.54" y="-157.8" font-family="Times,serif" font-size="14.00">if (not r262) then goto label_3102 end</text>
</g>
<!-- 23&#45;&gt;25 -->
<g id="edge30" class="edge">
<title>23-&gt;25</title>
<path fill="none" stroke="red" d="M483.62,-216.23C459.36,-206.53 428.61,-194.23 402.78,-183.9"/>
<polygon fill="red" stroke="red" points="404.41,-180.78 393.82,-180.31 401.81,-187.28 404.41,-180.78"/>
</g>
<!-- 24&#45;&gt;23 -->
<g id="edge31" class="edge">
<title>24-&gt;23</title>
<path fill="none" stroke="red" d="M569.97,-180.1C564.97,-188.13 558.09,-197.87 551.19,-206.8"/>
<polygon fill="red" stroke="red" points="548.53,-204.52 545.01,-214.52 553.99,-208.9 548.53,-204.52"/>
</g>
<!-- 26 -->
<g id="node27" class="node">
<title>26</title>
<ellipse fill="none" stroke="black" cx="443.54" cy="-90" rx="64.68" ry="18"/>
<text xml:space="preserve" text-anchor="middle" x="443.54" y="-85.8" font-family="Times,serif" font-size="14.00">::label_3102::</text>
</g>
<!-- 25&#45;&gt;26 -->
<g id="edge32" class="edge">
<title>25-&gt;26</title>
<path fill="none" stroke="green" d="M373.53,-143.7C385.39,-134.77 400.02,-123.76 412.83,-114.11"/>
<polygon fill="green" stroke="green" points="414.68,-117.1 420.57,-108.29 410.47,-111.51 414.68,-117.1"/>
</g>
<!-- 27 -->
<g id="node28" class="node">
<title>27</title>
<ellipse fill="none" stroke="black" cx="443.54" cy="-18" rx="49.93" ry="18"/>
<text xml:space="preserve" text-anchor="middle" x="443.54" y="-13.8" font-family="Times,serif" font-size="14.00">goto 1359</text>
</g>
<!-- 25&#45;&gt;27 -->
<g id="edge33" class="edge">
<title>25-&gt;27</title>
<path fill="none" stroke="red" d="M350.62,-143.52C351.49,-124.48 355.26,-93.81 369.54,-72 378.3,-58.62 391.7,-47.54 404.7,-39.02"/>
<polygon fill="red" stroke="red" points="406.5,-42.03 413.19,-33.81 402.84,-36.06 406.5,-42.03"/>
</g>
<!-- 26&#45;&gt;27 -->
<g id="edge34" class="edge">
<title>26-&gt;27</title>
<path fill="none" stroke="purple" d="M443.54,-71.7C443.54,-64.41 443.54,-55.73 443.54,-47.54"/>
<polygon fill="purple" stroke="purple" points="447.04,-47.62 443.54,-37.62 440.04,-47.62 447.04,-47.62"/>
</g>
<!-- 27&#45;&gt;7 -->
<g id="edge35" class="edge">
<title>27-&gt;7</title>
<path fill="none" stroke="red" d="M492.39,-22.45C571.41,-30.99 718.54,-60.39 718.54,-161 718.54,-883 718.54,-883 718.54,-883 718.54,-925.5 711.65,-940.12 683.54,-972 672.09,-984.99 656.66,-995.4 641.48,-1003.45"/>
<polygon fill="red" stroke="red" points="640.31,-1000.12 632.93,-1007.72 643.44,-1006.38 640.31,-1000.12"/>
</g>
<!-- 28&#45;&gt;7 -->
<g id="edge36" class="edge">
<title>28-&gt;7</title>
<path fill="none" stroke="red" d="M639.95,-395.74C647.33,-405.73 656.08,-418.98 661.54,-432 677.18,-469.3 680.54,-480.55 680.54,-521 680.54,-883 680.54,-883 680.54,-883 680.54,-923.45 683.81,-938.23 661.54,-972 653.65,-983.97 642.04,-994.08 630.3,-1002.14"/>
<polygon fill="red" stroke="red" points="628.72,-999 622.21,-1007.36 632.51,-1004.89 628.72,-999"/>
</g>
<!-- 29&#45;&gt;9 -->
<g id="edge37" class="edge">
<title>29-&gt;9</title>
<path fill="none" stroke="red" d="M278.91,-507.17C257.86,-497.35 229.17,-483.96 205.09,-472.72"/>
<polygon fill="red" stroke="red" points="206.65,-469.59 196.11,-468.53 203.69,-475.93 206.65,-469.59"/>
</g>
<!-- 30&#45;&gt;18 -->
<g id="edge38" class="edge">
<title>30-&gt;18</title>
<path fill="none" stroke="red" d="M556.66,-649.98C541.04,-640.56 520.61,-628.23 503.05,-617.64"/>
<polygon fill="red" stroke="red" points="505.31,-614.91 494.94,-612.74 501.69,-620.9 505.31,-614.91"/>
</g>
<!-- 31&#45;&gt;15 -->
<g id="edge39" class="edge">
<title>31-&gt;15</title>
<path fill="none" stroke="purple" d="M528.53,-864.05C521.25,-855.84 512.36,-845.79 504.27,-836.66"/>
<polygon fill="purple" stroke="purple" points="507.1,-834.57 497.85,-829.41 501.86,-839.21 507.1,-834.57"/>
</g>
</g>
</svg>